<?xml version="1.0" encoding="UTF-8"?>
<svg xmlns="http://www.w3.org/2000/svg" viewBox="0 0 540 780" width="540" height="780" font-family="'Segoe UI', 'Inter', 'Helvetica Neue', Arial, sans-serif">

  <!-- Background -->
  <rect width="540" height="780" fill="#0f1117" rx="16"/>

  <!-- Title -->
  <text x="270" y="38" text-anchor="middle" font-size="15" font-weight="700" fill="#e2e8f0" letter-spacing="0.5">DGX Spark — AI Inference Stack</text>

  <!-- ── Oracle APEX ── -->
  <rect x="120" y="60" width="300" height="66" rx="10" fill="#1e3a5f" stroke="#3b82f6" stroke-width="1.5"/>
  <text x="270" y="86" text-anchor="middle" font-size="14" font-weight="700" fill="#93c5fd">Oracle APEX</text>
  <text x="270" y="106" text-anchor="middle" font-size="11" fill="#64a0e0">Application Express — web application platform</text>

  <!-- Arrow 1 -->
  <line x1="270" y1="126" x2="270" y2="158" stroke="#475569" stroke-width="1.5" stroke-dasharray="4 3"/>
  <polygon points="270,162 264,150 276,150" fill="#475569"/>
  <rect x="176" y="133" width="88" height="18" rx="4" fill="#1e293b"/>
  <text x="220" y="145" text-anchor="middle" font-size="10" fill="#94a3b8">POST :8766</text>

  <!-- ── apex-gateway.py ── -->
  <rect x="120" y="162" width="300" height="72" rx="10" fill="#1e3a2f" stroke="#22c55e" stroke-width="1.5"/>
  <text x="270" y="187" text-anchor="middle" font-size="14" font-weight="700" fill="#86efac">apex-gateway.py</text>
  <text x="270" y="206" text-anchor="middle" font-size="11" fill="#6ee7a0">injects  stream:false  +  chat_id</text>
  <text x="270" y="222" text-anchor="middle" font-size="10" fill="#4ade80">Python HTTP proxy · systemd service</text>

  <!-- Arrow 2 -->
  <line x1="270" y1="234" x2="270" y2="266" stroke="#475569" stroke-width="1.5" stroke-dasharray="4 3"/>
  <polygon points="270,270 264,258 276,258" fill="#475569"/>
  <rect x="176" y="241" width="88" height="18" rx="4" fill="#1e293b"/>
  <text x="220" y="253" text-anchor="middle" font-size="10" fill="#94a3b8">POST :3000</text>

  <!-- ── Open WebUI ── -->
  <rect x="120" y="270" width="300" height="72" rx="10" fill="#2d1f3d" stroke="#a855f7" stroke-width="1.5"/>
  <text x="270" y="295" text-anchor="middle" font-size="14" font-weight="700" fill="#d8b4fe">Open WebUI  (Docker)</text>
  <text x="270" y="314" text-anchor="middle" font-size="11" fill="#c084fc">chat interface · model management</text>
  <text x="270" y="330" text-anchor="middle" font-size="10" fill="#a78bfa">tool calling · v0.9.6</text>

  <!-- Arrow 3 -->
  <line x1="270" y1="342" x2="270" y2="374" stroke="#475569" stroke-width="1.5" stroke-dasharray="4 3"/>
  <polygon points="270,378 264,366 276,366" fill="#475569"/>
  <rect x="162" y="349" width="116" height="18" rx="4" fill="#1e293b"/>
  <text x="220" y="361" text-anchor="middle" font-size="10" fill="#94a3b8">OpenAI API  :8080</text>

  <!-- ── llama-swap ── -->
  <rect x="120" y="378" width="300" height="72" rx="10" fill="#2d2a1a" stroke="#eab308" stroke-width="1.5"/>
  <text x="270" y="403" text-anchor="middle" font-size="14" font-weight="700" fill="#fde68a">llama-swap</text>
  <text x="270" y="422" text-anchor="middle" font-size="11" fill="#fcd34d">model router · dynamic process manager</text>
  <text x="270" y="438" text-anchor="middle" font-size="10" fill="#f59e0b">20 registered models · globalTTL: 0</text>

  <!-- Arrow 4 -->
  <line x1="270" y1="450" x2="270" y2="482" stroke="#475569" stroke-width="1.5" stroke-dasharray="4 3"/>
  <polygon points="270,486 264,474 276,474" fill="#475569"/>
  <rect x="196" y="457" width="48" height="18" rx="4" fill="#1e293b"/>
  <text x="220" y="469" text-anchor="middle" font-size="10" fill="#94a3b8">spawns</text>

  <!-- ── llama-server ── -->
  <rect x="120" y="486" width="300" height="72" rx="10" fill="#2d1a1a" stroke="#ef4444" stroke-width="1.5"/>
  <text x="270" y="511" text-anchor="middle" font-size="14" font-weight="700" fill="#fca5a5">llama-server</text>
  <text x="270" y="530" text-anchor="middle" font-size="11" fill="#f87171">GPU inference engine  (llama.cpp)</text>
  <text x="270" y="546" text-anchor="middle" font-size="10" fill="#ef4444">commit 1a29907 · CUDA 13.0 · FlashAttention</text>

  <!-- Arrow 5 -->
  <line x1="270" y1="558" x2="270" y2="590" stroke="#475569" stroke-width="1.5" stroke-dasharray="4 3"/>
  <polygon points="270,594 264,582 276,582" fill="#475569"/>

  <!-- ── NVIDIA GB10 GPU ── -->
  <rect x="80" y="594" width="380" height="108" rx="10" fill="#1a2535" stroke="#38bdf8" stroke-width="2"/>
  <!-- GPU chip icon suggestion via a small rect -->
  <rect x="104" y="614" width="32" height="32" rx="4" fill="#0ea5e9" opacity="0.3"/>
  <rect x="110" y="620" width="20" height="20" rx="2" fill="#38bdf8" opacity="0.6"/>
  <text x="270" y="624" text-anchor="middle" font-size="14" font-weight="700" fill="#7dd3fc">NVIDIA GB10  ·  Blackwell GPU</text>
  <text x="270" y="644" text-anchor="middle" font-size="11" fill="#38bdf8">121 GiB unified memory  (CPU + GPU)</text>
  <text x="270" y="662" text-anchor="middle" font-size="10.5" fill="#7dd3fc">SM 12.1  ·  CUDA 13.0  ·  273 GB/s bandwidth</text>
  <text x="270" y="680" text-anchor="middle" font-size="10" fill="#0ea5e9">ARM: 10× Cortex-X925 + 10× Cortex-A725</text>
  <text x="270" y="696" text-anchor="middle" font-size="10" fill="#0ea5e9">FP8 tensor ops  ·  native FlashAttention  ·  KleidiAI</text>

  <!-- Footer -->
  <text x="270" y="740" text-anchor="middle" font-size="10" fill="#334155">Default model: gpt-oss-120b  ·  55.8 t/s  ·  131K ctx</text>
  <text x="270" y="758" text-anchor="middle" font-size="10" fill="#334155">docs/benchmark_all_models.md</text>

</svg>
